<svg xmlns="http://www.w3.org/2000/svg" viewBox="0 0 120 40" fill="none">
  <!-- N -->
  <rect x="2" y="4" width="4" height="24" fill="#00f0ff"/>
  <rect x="2" y="4" width="4" height="4" fill="#00f0ff"/>
  <rect x="14" y="4" width="4" height="24" fill="#00f0ff"/>
  <rect x="6" y="8" width="4" height="4" fill="#00f0ff" opacity="0.7"/>
  <rect x="10" y="12" width="4" height="4" fill="#00f0ff" opacity="0.5"/>
  <!-- E -->
  <rect x="22" y="4" width="4" height="24" fill="#00f0ff"/>
  <rect x="22" y="4" width="12" height="4" fill="#00f0ff"/>
  <rect x="22" y="14" width="10" height="4" fill="#00f0ff" opacity="0.8"/>
  <rect x="22" y="24" width="12" height="4" fill="#00f0ff"/>
  <!-- O -->
  <rect x="38" y="4" width="12" height="4" fill="#b026ff"/>
  <rect x="38" y="24" width="12" height="4" fill="#b026ff"/>
  <rect x="38" y="4" width="4" height="24" fill="#b026ff"/>
  <rect x="46" y="4" width="4" height="24" fill="#b026ff"/>
  <!-- N2 -->
  <rect x="54" y="4" width="4" height="24" fill="#ff2d95"/>
  <rect x="54" y="4" width="4" height="4" fill="#ff2d95"/>
  <rect x="66" y="4" width="4" height="24" fill="#ff2d95"/>
  <rect x="58" y="8" width="4" height="4" fill="#ff2d95" opacity="0.7"/>
  <rect x="62" y="12" width="4" height="4" fill="#ff2d95" opacity="0.5"/>
  <!-- Separator line -->
  <rect x="74" y="8" width="2" height="16" fill="#3a3a5c" rx="1"/>
  <!-- A -->
  <rect x="80" y="4" width="4" height="24" fill="#39ff14"/>
  <rect x="92" y="4" width="4" height="24" fill="#39ff14"/>
  <rect x="80" y="4" width="16" height="4" fill="#39ff14"/>
  <rect x="80" y="14" width="16" height="4" fill="#39ff14" opacity="0.7"/>
  <!-- R -->
  <rect x="100" y="4" width="4" height="24" fill="#39ff14"/>
  <rect x="100" y="4" width="12" height="4" fill="#39ff14"/>
  <rect x="108" y="4" width="4" height="4" fill="#39ff14"/>
  <rect x="108" y="14" width="4" height="4" fill="#39ff14" opacity="0.8"/>
  <rect x="100" y="14" width="8" height="4" fill="#39ff14" opacity="0.7"/>
  <rect x="106" y="18" width="4" height="4" fill="#39ff14" opacity="0.6"/>
  <rect x="110" y="22" width="4" height="4" fill="#39ff14" opacity="0.5"/>
</svg>
